# xmcd
#
# Track frame offsets:
#	150
#	20608
#	40776
#	58716
#	81745
#	103164
#	123712
#	137460
#	157243
#	173802
#	200082
#	220818
#	235912
#	252872
#	270892
#
# Disc length: 3791 seconds
# Revision: 0
# Processed by: cddbd v1.5.2PL0 Copyright (c) Steve Scherf et al.
# Submitted via: dBpowerAMP V12.0
#
DISCID=dc0ecd0f
DTITLE=Sawyer Fredericks - Out My Window
DYEAR=2013
DGENRE=Singer/Songwriter
TTITLE0=So Lucky
TTITLE1=The Closest Thing to Love
TTITLE2=Out My Window
TTITLE3=Sometimes I Wonder
TTITLE4=Not My Girl
TTITLE5=If I Loved You
TTITLE6=Blue Water
TTITLE7=The One Thing
TTITLE8=Because of You
TTITLE9=Why So Blue
TTITLE10=From My Heart
TTITLE11=Shallow Water
TTITLE12=Short Temper
TTITLE13=Afraid
TTITLE14=It's You
EXTD=
EXTT0=
EXTT1=
EXTT2=
EXTT3=
EXTT4=
EXTT5=
EXTT6=
EXTT7=
EXTT8=
EXTT9=
EXTT10=
EXTT11=
EXTT12=
EXTT13=
EXTT14=
PLAYORDER=
